# xmcd CD database file
#
# Track frame offsets:
#	150
#	24677
#	57981
#	84398
#	119953
#	146788
#	165804
#	189931
#	207346
#	228630
#	254558
#	271640
#	293204
#	318220
#
# Disc length: 4568 seconds
#
# Revision: 0
# Processed by: cddbd v1.5.2PL0 Copyright (c) Steve Scherf et al.
# Submitted via: CDex 1.51
#
DISCID=cb11d60e
DTITLE=Eric Clapton - Pilgrim
DYEAR=1998
DGENRE=Blues
TTITLE0=My father´s eyes
TTITLE1=River of tears
TTITLE2=Pilgrim
TTITLE3=Broken Hearted
TTITLE4=One chance
TTITLE5=Circus
TTITLE6=Going down slow
TTITLE7=Fall like rain
TTITLE8=Born in time
TTITLE9=Sick and tired
TTITLE10=Needs his woman
TTITLE11=She´s gone
TTITLE12=You were there
TTITLE13=Inside of me
EXTD=YEAR: 1998
EXTT0=
EXTT1=
EXTT2=
EXTT3=
EXTT4=
EXTT5=
EXTT6=
EXTT7=
EXTT8=
EXTT9=
EXTT10=
EXTT11=
EXTT12=
EXTT13=
PLAYORDER=
